<svg xmlns="http://www.w3.org/2000/svg" version="1.1" xmlns:xlink="http://www.w3.org/1999/xlink" xmlns:svgjs="http://svgjs.dev/svgjs" width="1500" height="935" viewBox="0 0 1500 935"><g transform="matrix(1,0,0,1,-0.9090909090909918,0.3785425101214628)"><svg viewBox="0 0 396 247" data-background-color="#444444" preserveAspectRatio="xMidYMid meet" height="935" width="1500" xmlns="http://www.w3.org/2000/svg" xmlns:xlink="http://www.w3.org/1999/xlink"><g id="tight-bounds" transform="matrix(1,0,0,1,0.2400000000000091,-0.09999999999999432)"><svg viewBox="0 0 395.52 247.2" height="247.2" width="395.52"><g><svg></svg></g><g><svg viewBox="0 0 395.52 247.2" height="247.2" width="395.52"><g transform="matrix(1,0,0,1,39.55199999999999,83.80288901408451)"><svg viewBox="0 0 316.416 79.59422197183098" height="79.59422197183098" width="316.416"><g><svg viewBox="0 0 316.416 79.59422197183098" height="79.59422197183098" width="316.416"><g><svg viewBox="0 0 316.416 79.59422197183098" height="79.59422197183098" width="316.416"><g><svg viewBox="0 0 316.416 79.59422197183098" height="79.59422197183098" width="316.416"><g id="textblocktransform"><svg viewBox="0 0 316.416 79.59422197183098" height="79.59422197183098" width="316.416" id="textblock"><g><svg viewBox="0 0 316.416 79.59422197183098" height="79.59422197183098" width="316.416"><g transform="matrix(1,0,0,1,0,0)"><svg width="316.416" viewBox="2.15 -35 177.48 44.65" height="79.59422197183098" data-palette-color="#ffffff"><path d="M8.45 0L2.15 0 2.15-34.05Q2.15-34.5 2.43-34.75 2.7-35 3.5-35L3.5-35 8.45-35Q9.95-35 11.45-34.68 12.95-34.35 14.15-33.52 15.35-32.7 16.1-31.2 16.85-29.7 16.85-27.25L16.85-27.25Q16.85-24.5 16.1-22.8 15.35-21.1 14.25-20.23 13.15-19.35 12.05-19.2L12.05-19.2Q12.9-19.15 13.93-18.82 14.95-18.5 15.88-17.73 16.8-16.95 17.38-15.55 17.95-14.15 17.95-11.9L17.95-11.9Q17.95-9.4 17.48-7.45 17-5.5 16.13-4.1 15.25-2.7 14.05-1.78 12.85-0.85 11.45-0.43 10.05 0 8.45 0L8.45 0ZM6.3-17.2L6.3-3.55 8.55-3.55Q9.5-3.55 10.33-4 11.15-4.45 11.8-5.43 12.45-6.4 12.83-7.9 13.2-9.4 13.2-11.55L13.2-11.55Q13.2-13.5 12.88-14.63 12.55-15.75 11.93-16.32 11.3-16.9 10.45-17.05 9.6-17.2 8.6-17.2L8.6-17.2 6.3-17.2ZM6.3-31.4L6.3-20.7 8.75-20.7Q9.8-20.7 10.63-21.3 11.45-21.9 11.93-23.2 12.4-24.5 12.4-26.5L12.4-26.5Q12.4-28.55 11.88-29.6 11.35-30.65 10.5-31.03 9.65-31.4 8.7-31.4L8.7-31.4 6.3-31.4ZM28.25 0.5L28.25 0.5Q26.55 0.5 25.07 0.03 23.6-0.45 22.52-1.7 21.45-2.95 20.87-5.25 20.3-7.55 20.3-11.2L20.3-11.2Q20.3-15.9 21.05-18.75 21.8-21.6 23.05-23.05 24.3-24.5 25.9-25 27.5-25.5 29.15-25.5L29.15-25.5Q32.3-25.5 33.9-23.5 35.5-21.5 35.5-17.45L35.5-17.45Q35.5-15.8 35.37-14.05 35.25-12.3 34.9-10.95L34.9-10.95Q33.2-10.6 31.1-10.45 29-10.3 27.1-10.23 25.2-10.15 23.97-10.15 22.75-10.15 22.75-10.15L22.75-10.15 22.8-13.45Q22.8-13.45 23.75-13.43 24.7-13.4 26.07-13.43 27.45-13.45 28.87-13.58 30.3-13.7 31.3-14L31.3-14Q31.45-14.7 31.5-15.5 31.55-16.3 31.55-17L31.55-17Q31.5-19.7 30.92-20.83 30.35-21.95 28.7-21.95L28.7-21.95Q27.85-21.95 27.07-21.48 26.3-21 25.7-19.83 25.1-18.65 24.77-16.6 24.45-14.55 24.45-11.35L24.45-11.35Q24.45-9 24.72-7.45 25-5.9 25.57-5.05 26.15-4.2 27.02-3.83 27.9-3.45 29.15-3.45L29.15-3.45Q30.65-3.45 32.12-3.85 33.6-4.25 34.8-5L34.8-5Q35.05-4.4 35.12-3.63 35.2-2.85 35.2-2.25L35.2-2.25Q35.2-1.5 34.25-0.85 33.3-0.2 31.72 0.15 30.15 0.5 28.25 0.5ZM45.4 0.5L45.4 0.5Q44 0.5 42.72 0.28 41.45 0.05 40.45-0.73 39.45-1.5 38.84-3 38.25-4.5 38.25-7.1L38.25-7.1Q38.25-9.7 38.8-11.33 39.34-12.95 40.3-13.83 41.25-14.7 42.45-15 43.65-15.3 44.9-15.3L44.9-15.3Q45.7-15.3 46.77-15.15 47.84-15 48.59-14.65L48.59-14.65Q48.59-14.65 48.59-15.35 48.59-16.05 48.59-16.98 48.59-17.9 48.59-18.6L48.59-18.6Q48.59-19.8 48.22-20.43 47.84-21.05 47.17-21.33 46.5-21.6 45.5-21.6L45.5-21.6Q43.55-21.6 41.75-21.25 39.95-20.9 38.84-20.45L38.84-20.45Q38.5-21.05 38.4-21.68 38.3-22.3 38.3-22.8L38.3-22.8Q38.3-23.15 38.42-23.55 38.55-23.95 38.84-24.15L38.84-24.15Q39.5-24.55 41.55-25.03 43.59-25.5 46.45-25.5L46.45-25.5Q49.7-25.5 51.17-24.15 52.65-22.8 52.65-19.4L52.65-19.4 52.65-16.75Q52.65-13.9 52.62-11.03 52.59-8.15 52.55-5.63 52.5-3.1 52.34-1.2L52.34-1.2Q51.34-0.6 49.59-0.05 47.84 0.5 45.4 0.5ZM45.8-2.9L45.8-2.9Q46.59-2.9 47.34-3.15 48.09-3.4 48.4-3.75L48.4-3.75Q48.5-4.55 48.52-5.95 48.55-7.35 48.57-8.9 48.59-10.45 48.59-11.8L48.59-11.8Q48.09-12.05 47.42-12.15 46.75-12.25 46.25-12.25L46.25-12.25Q45.45-12.25 44.77-12.08 44.09-11.9 43.59-11.38 43.09-10.85 42.8-9.85 42.5-8.85 42.5-7.2L42.5-7.2Q42.5-5.85 42.72-5 42.95-4.15 43.4-3.68 43.84-3.2 44.45-3.05 45.05-2.9 45.8-2.9ZM64.19 0.5L64.19 0.5Q61.19 0.5 59.59-0.4 57.99-1.3 57.37-3.15 56.74-5 56.74-7.8L56.74-7.8 56.74-24.2Q56.74-24.6 56.89-24.75 57.04-24.9 57.92-24.95 58.79-25 60.89-25L60.89-25 60.89-7.45Q60.89-5.85 61.17-4.88 61.44-3.9 62.17-3.48 62.89-3.05 64.24-3.05L64.24-3.05Q64.94-3.05 65.89-3.25 66.84-3.45 67.64-3.95L67.64-3.95 67.64-24.2Q67.64-24.6 67.82-24.75 67.99-24.9 68.82-24.95 69.64-25 71.69-25L71.69-25 71.69-1.3Q70.24-0.5 68.24 0 66.24 0.5 64.19 0.5ZM83.04 0.5L83.04 0.5Q80.94 0.5 79.92-0.43 78.89-1.35 78.59-3.03 78.29-4.7 78.29-6.95L78.29-6.95 78.29-21.5 74.89-21.5Q74.89-23.1 74.92-23.83 74.94-24.55 75.14-24.78 75.34-25 75.74-25L75.74-25 78.29-25 78.29-32.6Q78.29-33.35 78.62-33.63 78.94-33.9 79.82-33.95 80.69-34 82.34-34L82.34-34 82.34-25 87.44-25Q87.44-23.45 87.42-22.7 87.39-21.95 87.22-21.73 87.04-21.5 86.64-21.5L86.64-21.5 82.34-21.5 82.34-6.95Q82.34-5.9 82.42-4.98 82.49-4.05 82.87-3.53 83.24-3 84.14-3L84.14-3Q84.99-3 85.64-3.18 86.29-3.35 87.04-3.75L87.04-3.75Q87.14-3.35 87.24-2.85 87.34-2.35 87.34-1.7L87.34-1.7Q87.34-0.8 86.67-0.33 85.99 0.15 85.02 0.33 84.04 0.5 83.04 0.5ZM92.34 9.65L92.34 9.65Q90.14 9.65 89.21 9.1 88.29 8.55 88.29 7.7L88.29 7.7Q88.29 7.1 88.44 6.45 88.59 5.8 88.89 5.4L88.89 5.4Q89.39 5.75 90.29 5.98 91.19 6.2 92.04 6.2L92.04 6.2Q93.24 6.2 94.19 5.05 95.14 3.9 95.69 0.8L95.69 0.8 89.69-23.9Q89.54-24.45 89.66-24.68 89.79-24.9 90.66-24.95 91.54-25 93.64-25L93.64-25 96.34-13.05Q96.64-11.55 96.89-10 97.14-8.45 97.29-7.13 97.44-5.8 97.56-5 97.69-4.2 97.69-4.2L97.69-4.2Q97.69-4.2 97.76-5 97.84-5.8 98.01-7.13 98.19-8.45 98.41-10.03 98.64-11.6 98.89-13.1L98.89-13.1 101.14-23.8Q101.24-24.45 101.44-24.68 101.64-24.9 102.54-24.95 103.44-25 105.49-25L105.49-25 99.34 1.35Q98.59 4.5 97.66 6.33 96.74 8.15 95.46 8.9 94.19 9.65 92.34 9.65ZM123.49 0L107.89 0Q107.64-0.25 107.44-0.65 107.24-1.05 107.24-1.6L107.24-1.6Q107.24-2.05 107.34-2.48 107.44-2.9 107.64-3.4L107.64-3.4 119.59-31.35 110.29-31.35Q109.64-31.35 109.04-31.33 108.44-31.3 108.09-31.2L108.09-31.2 108.09-34.15Q108.09-35 108.94-35L108.94-35 123.89-35Q124.09-34.75 124.19-34.45 124.29-34.15 124.29-33.65L124.29-33.65Q124.29-32.8 123.89-31.85L123.89-31.85 111.74-3.65 121.39-3.65Q122.24-3.65 122.99-3.73 123.74-3.8 124.34-4L124.34-4 124.34-0.8Q124.34-0.45 124.16-0.23 123.99 0 123.49 0L123.49 0ZM133.73 0.5L133.73 0.5Q131.83 0.5 130.36 0.03 128.88-0.45 127.88-1.8 126.88-3.15 126.38-5.73 125.88-8.3 125.88-12.5L125.88-12.5Q125.88-19.35 128.08-22.43 130.28-25.5 134.18-25.5L134.18-25.5Q136.83-25.5 138.56-24.4 140.28-23.3 141.13-20.5 141.98-17.7 141.98-12.65L141.98-12.65Q141.98-5.65 139.88-2.58 137.78 0.5 133.73 0.5ZM133.83-2.95L133.83-2.95Q134.93-2.95 135.76-3.73 136.58-4.5 137.08-6.6 137.58-8.7 137.58-12.6L137.58-12.6Q137.58-16.6 137.18-18.63 136.78-20.65 136.03-21.35 135.28-22.05 134.03-22.05L134.03-22.05Q132.93-22.05 132.08-21.28 131.23-20.5 130.76-18.4 130.28-16.3 130.28-12.4L130.28-12.4Q130.28-9.35 130.53-7.45 130.78-5.55 131.21-4.58 131.63-3.6 132.33-3.28 133.03-2.95 133.83-2.95ZM145.58 0L145.58 0 145.58-23.8Q146.58-24.25 147.93-24.63 149.28-25 150.73-25.25 152.18-25.5 153.53-25.5L153.53-25.5Q156.13-25.5 157.68-24.83 159.23-24.15 159.88-22.7 160.53-21.25 160.53-18.8L160.53-18.8 160.53-0.8Q160.53-0.4 160.33-0.25 160.13-0.1 159.28-0.05 158.43 0 156.33 0L156.33 0 156.33-17.6Q156.33-19.95 155.78-20.95 155.23-21.95 153.38-21.95L153.38-21.95Q152.53-21.95 151.48-21.75 150.43-21.55 149.63-21.05L149.63-21.05 149.63-0.8Q149.63-0.4 149.46-0.25 149.28-0.1 148.43-0.05 147.58 0 145.58 0ZM172.38 0.5L172.38 0.5Q170.68 0.5 169.2 0.03 167.73-0.45 166.65-1.7 165.58-2.95 165-5.25 164.43-7.55 164.43-11.2L164.43-11.2Q164.43-15.9 165.18-18.75 165.93-21.6 167.18-23.05 168.43-24.5 170.03-25 171.63-25.5 173.28-25.5L173.28-25.5Q176.43-25.5 178.03-23.5 179.63-21.5 179.63-17.45L179.63-17.45Q179.63-15.8 179.5-14.05 179.38-12.3 179.03-10.95L179.03-10.95Q177.33-10.6 175.23-10.45 173.13-10.3 171.23-10.23 169.33-10.15 168.1-10.15 166.88-10.15 166.88-10.15L166.88-10.15 166.93-13.45Q166.93-13.45 167.88-13.43 168.83-13.4 170.2-13.43 171.58-13.45 173-13.58 174.43-13.7 175.43-14L175.43-14Q175.58-14.7 175.63-15.5 175.68-16.3 175.68-17L175.68-17Q175.63-19.7 175.05-20.83 174.48-21.95 172.83-21.95L172.83-21.95Q171.98-21.95 171.2-21.48 170.43-21 169.83-19.83 169.23-18.65 168.9-16.6 168.58-14.55 168.58-11.35L168.58-11.35Q168.58-9 168.85-7.45 169.13-5.9 169.7-5.05 170.28-4.2 171.15-3.83 172.03-3.45 173.28-3.45L173.28-3.45Q174.78-3.45 176.25-3.85 177.73-4.25 178.93-5L178.93-5Q179.18-4.4 179.25-3.63 179.33-2.85 179.33-2.25L179.33-2.25Q179.33-1.5 178.38-0.85 177.43-0.2 175.85 0.15 174.28 0.5 172.38 0.5Z" opacity="1" transform="matrix(1,0,0,1,0,0)" fill="#ffffff" class="wordmark-text-0" data-fill-palette-color="primary" id="text-0"></path></svg></g></svg></g></svg></g></svg></g></svg></g></svg></g></svg></g><g><path d="M0 247.2v-247.2h395.52v247.2zM388.342 240.022v-232.844h-381.164v232.844z" fill="#ffffff" fill-rule="nonzero" stroke="none" stroke-width="1" stroke-linecap="butt" stroke-linejoin="miter" stroke-miterlimit="10" stroke-dasharray="" stroke-dashoffset="0" font-family="none" font-weight="none" font-size="none" text-anchor="none" style="mix-blend-mode: normal" data-fill-palette-color="tertiary"></path></g></svg></g><defs></defs></svg><rect width="395.52" height="247.2" fill="none" stroke="none" visibility="hidden"></rect></g></svg></g></svg>